# xmcd
#
# Track frame offsets:
#	150
#	15498
#	31549
#	47048
#	61744
#	80597
#	96562
#	110650
#	127938
#	148973
#	166061
#	180853
#	198538
#	213279
#	232243
#	250642
#	265819
#	282584
#	300477
#	319520
#	337366
#
# Disc length: 4734 seconds
#
# Revision: 0
# Processed by: cddbd v1.5PL3 Copyright (c) Steve Scherf et al.
# Submitted via: audiograbber 1.83.01
#
DISCID=29127c15
DTITLE=Norah Jones - Feels Like Home-A
DYEAR=2004
DGENRE=Blues
TTITLE0=Sunrise
TTITLE1=What Am I To You?
TTITLE2=Those Sweet Words
TTITLE3=Carnival Town
TTITLE4=In The Morning (Adam Levy)
TTITLE5=Be Here To Love Me
TTITLE6=Creepin' In
TTITLE7=Ties
TTITLE8=Humble Me
TTITLE9=Above Ground
TTITLE10=The Long Way Home
TTITLE11=The Prettiest Thing
TTITLE12=Don't Miss You At All
TTITLE13=Sleepless Nights
TTITLE14=White Flag
TTITLE15=Paris
TTITLE16=Thank You
TTITLE17=Hunter
TTITLE18=Here With Me
TTITLE19=Al You Want
TTITLE20=Isobel
EXTD=HDCD from China
EXTT0=
EXTT1=
EXTT2=
EXTT3=
EXTT4=
EXTT5=
EXTT6=
EXTT7=
EXTT8=
EXTT9=
EXTT10=
EXTT11=
EXTT12=
EXTT13=
EXTT14=
EXTT15=
EXTT16=
EXTT17=
EXTT18=
EXTT19=
EXTT20=
PLAYORDER=
